<?xml version="1.0" encoding="utf-8"?>
<svg width="100%" height="100%" viewBox="0 0 24 24" xmlns="http://www.w3.org/2000/svg" preserveAspectRatio="xMidYMid meet" style="--cloud:#FFFFFF;--rain:#006EFF;--fg:#FFFFFF;{{CSS_VARS}}">
  <g transform="matrix(1, 0, 0, 1, -0.001352, -0.174801)">
    <g transform="matrix(1, 0, 0, 1, 0, -0.39808)">
      <path d="M16 44h32a11 11 0 000-22 15 15 0 00-29-3A10 10 0 0016 44z" fill="var(--cloud, #FFFFFF)" transform="matrix(0.3125, 0, 0, 0.3125, 2, 1.5)"/>
      <g transform="matrix(1.028291, 0, 0, 1.028291, -2.052717, -0.143873)" style="">
        <g transform="matrix(1.177253, 0, 0, 1.177253, -2.174347, -2.784758)" style="">
          <line x1="14.008" y1="17.361" x2="13.135" y2="20.09" stroke="var(--rain, #006EFF)" stroke-width="1.5" stroke-linecap="round" style=""/>
          <line x1="16.561" y1="16.071" x2="15.687" y2="18.801" stroke="var(--rain, #006EFF)" stroke-width="1.5" stroke-linecap="round" style=""/>
          <circle cx="9.932" cy="16.793" r="0.801" fill="var(--fg, #FFFFFF)" style=""/>
          <circle cx="11.163" cy="18.723" r="0.801" fill="var(--fg, #FFFFFF)" style=""/>
          <circle cx="12.181" cy="16.1" r="0.801" fill="var(--fg, #FFFFFF)" style=""/>
        </g>
      </g>
    </g>
  </g>
</svg>