<?xml version="1.0" encoding="utf-8"?>
<svg width="100%" height="100%" viewBox="0 0 24 24" xmlns="http://www.w3.org/2000/svg" style="--cloud:#FFFFFF;--fg:#FFFFFF;{{CSS_VARS}}">
  <g transform="matrix(1, 0, 0, 1, 0.000332, 0.136324)">
    <path d="M 6.115 14.701 L 16.115 14.701 C 19.194 14.701 21.119 11.368 19.579 8.701 C 18.865 7.463 17.544 6.701 16.115 6.701 C 14.611 3.158 9.835 2.572 7.519 5.646 C 6.898 6.471 6.547 7.469 6.515 8.501 C 4.091 8.937 3.047 11.834 4.637 13.716 C 5.027 14.177 5.539 14.519 6.115 14.701 Z" fill="var(--cloud, #FFFFFF)" style="stroke-width: 1;"/>
    <g transform="matrix(1, 0, 0, 1, 0.422168, -0.103785)">
      <circle cx="15.495" cy="16.577" r="1.173" fill="var(--fg, #FFFFFF)" style="stroke-width: 1.355;"/>
      <circle cx="11.547" cy="16.577" r="1.173" fill="var(--fg, #FFFFFF)" style="stroke-width: 1.355;"/>
      <circle cx="7.66" cy="16.577" r="1.173" fill="var(--fg, #FFFFFF)" style="stroke-width: 1.355;"/>
    </g>
    <g transform="matrix(1, 0, 0, 1, 0.347168, -0.103785)">
      <circle cx="13.596" cy="19.004" r="1.173" fill="var(--fg, #FFFFFF)" style="stroke-width: 1.355;"/>
      <circle cx="9.709" cy="19.004" r="1.173" fill="var(--fg, #FFFFFF)" style="stroke-width: 1.355;"/>
    </g>
  </g>
</svg>