<?xml version="1.0" encoding="utf-8"?>
<svg width="100%" height="100%" viewBox="0 0 24 24" xmlns="http://www.w3.org/2000/svg" style="--cloud:#FFFFFF;--fg:#FFFFFF;{{CSS_VARS}}">
  <g transform="matrix(1, 0, 0, 1, 0.000332, 0.136324)">
    <path d="M16 44h32a11 11 0 000-22 15 15 0 00-29-3A10 10 0 0016 44z" fill="var(--cloud, #FFFFFF)" transform="matrix(0.3125, 0, 0, 0.3125, 2, 0.8)"/>
    <g transform="matrix(1, 0, 0, 1, 0.422168, -0.103785)">
      <circle cx="15.495" cy="16.577" r="1.173" fill="var(--fg, #FFFFFF)" style="stroke-width: 1.355;"/>
      <circle cx="11.547" cy="16.577" r="1.173" fill="var(--fg, #FFFFFF)" style="stroke-width: 1.355;"/>
      <circle cx="7.66" cy="16.577" r="1.173" fill="var(--fg, #FFFFFF)" style="stroke-width: 1.355;"/>
    </g>
    <g transform="matrix(1, 0, 0, 1, 0.347168, -0.103785)">
      <circle cx="13.596" cy="19.004" r="1.173" fill="var(--fg, #FFFFFF)" style="stroke-width: 1.355;"/>
      <circle cx="9.709" cy="19.004" r="1.173" fill="var(--fg, #FFFFFF)" style="stroke-width: 1.355;"/>
    </g>
  </g>
</svg>