<?xml version="1.0" encoding="utf-8"?>
<svg width="100%" height="100%" viewBox="0 0 24 24" xmlns="http://www.w3.org/2000/svg" preserveAspectRatio="xMidYMid meet" style="--cloud:#FFFFFF;--rain:#006EFF;--fg:#FFFFFF;{{CSS_VARS}}">
  <g transform="matrix(1, 0, 0, 1, -0.001352, -0.174801)">
    <g transform="matrix(1, 0, 0, 1, 0, -0.39808)">
      <path d="M 6.117 14.879 L 16.117 14.879 C 19.196 14.879 21.12 11.546 19.581 8.879 C 18.866 7.642 17.546 6.879 16.117 6.879 C 14.613 3.337 9.837 2.751 7.521 5.825 C 6.899 6.65 6.549 7.647 6.517 8.679 C 4.092 9.116 3.049 12.013 4.639 13.894 C 5.029 14.356 5.541 14.697 6.117 14.879 Z" fill="var(--cloud, #FFFFFF)"/>
      <g transform="matrix(1.028291, 0, 0, 1.028291, -2.052717, -0.143873)" style="">
        <g transform="matrix(1.177253, 0, 0, 1.177253, -2.174347, -2.784758)" style="">
          <line x1="14.008" y1="17.361" x2="13.135" y2="20.09" stroke="var(--rain, #006EFF)" stroke-width="1.5" stroke-linecap="round" style=""/>
          <line x1="16.561" y1="16.071" x2="15.687" y2="18.801" stroke="var(--rain, #006EFF)" stroke-width="1.5" stroke-linecap="round" style=""/>
          <circle cx="9.932" cy="16.793" r="0.801" fill="var(--fg, #FFFFFF)" style=""/>
          <circle cx="11.163" cy="18.723" r="0.801" fill="var(--fg, #FFFFFF)" style=""/>
          <circle cx="12.181" cy="16.1" r="0.801" fill="var(--fg, #FFFFFF)" style=""/>
        </g>
      </g>
    </g>
  </g>
</svg>